<svg id="Capa_1" data-name="Capa 1" xmlns="http://www.w3.org/2000/svg" viewBox="0 0 135.92 13"><defs><style>.cls-1{fill:#eb5790;}</style></defs><path class="cls-1" d="M46.92,6.5A6.5,6.5,0,0,1,53.42,0h76a6.5,6.5,0,0,1,0,13h-76A6.5,6.5,0,0,1,46.92,6.5Z"/><path class="cls-1" d="M6.5,0h2A6.5,6.5,0,0,1,15,6.5h0A6.5,6.5,0,0,1,8.5,13h-2A6.5,6.5,0,0,1,0,6.5H0A6.5,6.5,0,0,1,6.5,0Z"/><path class="cls-1" d="M30.46,0h2A6.5,6.5,0,0,1,39,6.5h0a6.5,6.5,0,0,1-6.5,6.5h-2A6.5,6.5,0,0,1,24,6.5h0A6.5,6.5,0,0,1,30.46,0Z"/></svg>