<svg id="Capa_1" data-name="Capa 1" xmlns="http://www.w3.org/2000/svg" viewBox="0 0 135 13"><defs><style>.cls-1{fill:#eb5790;}</style></defs><path class="cls-1" d="M29.5,0h76A6.5,6.5,0,0,1,112,6.5h0a6.5,6.5,0,0,1-6.5,6.5h-76A6.5,6.5,0,0,1,23,6.5h0A6.5,6.5,0,0,1,29.5,0Z"/><path class="cls-1" d="M6.5,0h2A6.5,6.5,0,0,1,15,6.5h0A6.5,6.5,0,0,1,8.5,13h-2A6.5,6.5,0,0,1,0,6.5H0A6.5,6.5,0,0,1,6.5,0Z"/><path class="cls-1" d="M126.5,0h2A6.5,6.5,0,0,1,135,6.5h0a6.5,6.5,0,0,1-6.5,6.5h-2A6.5,6.5,0,0,1,120,6.5h0A6.5,6.5,0,0,1,126.5,0Z"/></svg>