<svg id="Capa_1" data-name="Capa 1" xmlns="http://www.w3.org/2000/svg" viewBox="0 0 233 13"><defs><style>.cls-1{fill:#eb5790;}</style></defs><path class="cls-1" d="M6.5,0h2A6.5,6.5,0,0,1,15,6.5h0A6.5,6.5,0,0,1,8.5,13h-2A6.5,6.5,0,0,1,0,6.5H0A6.5,6.5,0,0,1,6.5,0Z"/><path class="cls-1" d="M29.5,0h2A6.5,6.5,0,0,1,38,6.5h0A6.5,6.5,0,0,1,31.5,13h-2A6.5,6.5,0,0,1,23,6.5h0A6.5,6.5,0,0,1,29.5,0Z"/><path class="cls-1" d="M52.5,0h2A6.5,6.5,0,0,1,61,6.5h0A6.5,6.5,0,0,1,54.5,13h-2A6.5,6.5,0,0,1,46,6.5h0A6.5,6.5,0,0,1,52.5,0Z"/><path class="cls-1" d="M75.5,0h2A6.5,6.5,0,0,1,84,6.5h0A6.5,6.5,0,0,1,77.5,13h-2A6.5,6.5,0,0,1,69,6.5h0A6.5,6.5,0,0,1,75.5,0Z"/><path class="cls-1" d="M98.5,0h2A6.5,6.5,0,0,1,107,6.5h0a6.5,6.5,0,0,1-6.5,6.5h-2A6.5,6.5,0,0,1,92,6.5h0A6.5,6.5,0,0,1,98.5,0Z"/><path class="cls-1" d="M121.5,0h2A6.5,6.5,0,0,1,130,6.5h0a6.5,6.5,0,0,1-6.5,6.5h-2A6.5,6.5,0,0,1,115,6.5h0A6.5,6.5,0,0,1,121.5,0Z"/><path class="cls-1" d="M144.5,0h82A6.5,6.5,0,0,1,233,6.5h0a6.5,6.5,0,0,1-6.5,6.5h-82A6.5,6.5,0,0,1,138,6.5h0A6.5,6.5,0,0,1,144.5,0Z"/></svg>