<svg id="Capa_1" data-name="Capa 1" xmlns="http://www.w3.org/2000/svg" viewBox="0 0 233 13"><defs><style>.cls-1{fill:#eb5790;}</style></defs><path class="cls-1" d="M6.5,0h2A6.5,6.5,0,0,1,15,6.5h0A6.5,6.5,0,0,1,8.5,13h-2A6.5,6.5,0,0,1,0,6.5H0A6.5,6.5,0,0,1,6.5,0Z"/><path class="cls-1" d="M29.5,0h82A6.5,6.5,0,0,1,118,6.5h0a6.5,6.5,0,0,1-6.5,6.5h-82A6.5,6.5,0,0,1,23,6.5h0A6.5,6.5,0,0,1,29.5,0Z"/><path class="cls-1" d="M132.5,0h2A6.5,6.5,0,0,1,141,6.5h0a6.5,6.5,0,0,1-6.5,6.5h-2A6.5,6.5,0,0,1,126,6.5h0A6.5,6.5,0,0,1,132.5,0Z"/><path class="cls-1" d="M155.5,0h2A6.5,6.5,0,0,1,164,6.5h0a6.5,6.5,0,0,1-6.5,6.5h-2A6.5,6.5,0,0,1,149,6.5h0A6.5,6.5,0,0,1,155.5,0Z"/><path class="cls-1" d="M178.5,0h2A6.5,6.5,0,0,1,187,6.5h0a6.5,6.5,0,0,1-6.5,6.5h-2A6.5,6.5,0,0,1,172,6.5h0A6.5,6.5,0,0,1,178.5,0Z"/><path class="cls-1" d="M201.5,0h2A6.5,6.5,0,0,1,210,6.5h0a6.5,6.5,0,0,1-6.5,6.5h-2A6.5,6.5,0,0,1,195,6.5h0A6.5,6.5,0,0,1,201.5,0Z"/><path class="cls-1" d="M224.5,0h2A6.5,6.5,0,0,1,233,6.5h0a6.5,6.5,0,0,1-6.5,6.5h-2A6.5,6.5,0,0,1,218,6.5h0A6.5,6.5,0,0,1,224.5,0Z"/></svg>