<svg id="Capa_1" data-name="Capa 1" xmlns="http://www.w3.org/2000/svg" viewBox="0 0 150 150"><defs><style>.cls-1{fill:#eb5790;}</style></defs><path class="cls-1" d="M9.83,94.8c.19-5.11,2.95-12.31,9.61-17.58,2.16-1.7,2.64-2.48.13-4.51-10.5-8.48-12.64-21.7-5.85-34,5.51-10,19.08-15,30.83-10.77,3.48,1.25,4.09.54,4.73-2.83,2.45-13,13.12-21.37,26.29-21.14,12.82.23,22.48,8.52,24.71,21.52.53,3,1.57,3.63,4.44,2.71,13.25-4.24,25.72.23,31.82,11.2,6.58,11.85,4.21,24.23-6.8,33.85-3.36,2.94.3,3.47,1.34,4.39,13.62,12,11.29,34.21-4.68,42.71-6.68,3.56-13.77,4.7-21,1.75-3.24-1.33-4.77-1.41-5.3,2.86-1.36,10.92-10.27,19.21-21.73,20.91-10.75,1.59-22-4.24-26.6-13.77-.7-1.45-1.82-2.93-1.86-4.43-.24-7.32-3.92-6-9.12-4.73C25.34,126.77,9.57,113.82,9.83,94.8ZM74.94,51.26c-13.42,0-23.58,10.09-23.65,23.56s10,23.68,23.43,23.73c13.63,0,24.09-10.33,24-23.78A23.5,23.5,0,0,0,74.94,51.26Z"/></svg>