<svg id="Capa_1" data-name="Capa 1" xmlns="http://www.w3.org/2000/svg" viewBox="0 0 167 167.09"><defs><style>.cls-1{fill:#eb5790;}</style></defs><path class="cls-1" d="M136.94,50.7c-11.58,0-21.38,8.68-28.06,14.91-5.68,5.31-10.56,7.54-13.12,6.44a1.77,1.77,0,0,0-.26-.35c-3.34-3.34-.2-8.58,3.78-14.25,4.08-5.82,12.69-12,14-27.39C114.08,21.19,107.07,0,83,0S51.41,18.48,51.41,30.06s8.68,21.38,14.92,28.06,8.14,12,5.71,14.11a1.7,1.7,0,0,0-.34.26c-3.34,3.34-8.58.2-14.25-3.78-5.82-4.09-12-12.7-27.39-14C21.19,53.91,0,60.91,0,85s18.48,31.59,30.06,31.59,21.38-8.69,28.06-14.92c6.24-5.83,11.51-8,13.81-6,3,3.35-.1,8.47-4,14-4.08,5.81-12.69,12-14,27.38-.77,8.88,6.24,30.06,30.31,30.06s31.59-18.48,31.59-30.06-8.68-21.37-14.91-28c-6.06-6.49-8.11-11.92-5.77-14.06a2.09,2.09,0,0,0,.17-.14c3.34-3.34,8.58-.19,14.25,3.79,5.82,4.08,12,12.69,27.39,14,8.87.77,30.06-6.24,30.06-30.31S148.52,50.7,136.94,50.7Z"/></svg>