<?xml version="1.0" encoding="utf-8"?>
<!-- Generator: Adobe Illustrator 25.0.1, SVG Export Plug-In . SVG Version: 6.00 Build 0)  -->
<svg version="1.1" id="Capa_1" xmlns="http://www.w3.org/2000/svg" xmlns:xlink="http://www.w3.org/1999/xlink" x="0px" y="0px"
	 viewBox="0 0 167 167.09" style="enable-background:new 0 0 167 167.09;" xml:space="preserve">
<style type="text/css">
	.st0{fill:#1E1E1C;}
	.st1{fill:#EB5790;}
	.st2{fill:#294596;}
</style>
<path class="st1" d="M7.35,106.68c0.23-5.97,3.45-14.38,11.24-20.53c2.52-1.99,3.08-2.9,0.14-5.27C6.47,70.97,3.97,55.51,11.9,41.09
	c6.44-11.72,22.29-17.48,36.02-12.58c4.07,1.45,4.78,0.63,5.52-3.31C56.31,10.04,68.77,0.24,84.16,0.51
	c14.98,0.26,26.26,9.95,28.88,25.14c0.61,3.57,1.83,4.24,5.19,3.16c15.47-4.95,30.05,0.27,37.17,13.09
	c7.69,13.85,4.92,28.31-7.94,39.55c-3.93,3.43,0.34,4.06,1.56,5.13c15.91,14,13.2,39.97-5.46,49.91c-7.8,4.16-16.09,5.49-24.54,2.04
	c-3.79-1.55-5.57-1.64-6.19,3.34c-1.59,12.76-12,22.45-25.39,24.44c-12.56,1.86-25.75-4.96-31.08-16.08
	c-0.81-1.7-2.12-3.43-2.17-5.18c-0.28-8.55-4.58-7.04-10.65-5.52C25.48,144.03,7.05,128.9,7.35,106.68z M83.43,55.81
	c-15.69-0.03-27.55,11.78-27.64,27.52c-0.09,15.71,11.73,27.67,27.38,27.73c15.92,0.05,28.14-12.07,27.99-27.78
	C111.03,67.85,98.9,55.85,83.43,55.81z"/>
</svg>
