<svg id="Capa_1" data-name="Capa 1" xmlns="http://www.w3.org/2000/svg" viewBox="0 0 150 150"><defs><style>.cls-1{fill:#eb5790;}</style></defs><path class="cls-1" d="M119.78,47.47c-9.7,0-17.91,7.28-23.51,12.5-4.76,4.45-8.85,6.32-11,5.4a1.33,1.33,0,0,0-.23-.3c-2.8-2.8-.16-7.19,3.17-11.94s10.64-10.08,11.76-23C100.63,22.74,94.76,5,74.58,5S48.11,20.48,48.11,30.18s7.27,17.91,12.5,23.51,6.82,10.06,4.79,11.82a1.58,1.58,0,0,0-.29.22c-2.8,2.8-7.19.17-11.94-3.17s-10.08-10.63-23-11.75C22.78,50.16,5,56,5,76.21s15.49,26.47,25.19,26.47,17.91-7.28,23.51-12.5c5.23-4.89,9.65-6.67,11.57-5.05,2.5,2.8-.08,7.1-3.34,11.74-3.42,4.87-10.63,10.08-11.75,22.95-.65,7.44,5.22,25.19,25.4,25.19s26.47-15.49,26.47-25.19-7.28-17.91-12.5-23.51c-5.08-5.44-6.8-10-4.84-11.78l.15-.11c2.8-2.8,7.19-.17,11.94,3.17s10.08,10.63,23,11.75c7.44.65,25.19-5.22,25.19-25.4S129.48,47.47,119.78,47.47Z"/></svg>