<svg id="Capa_1" data-name="Capa 1" xmlns="http://www.w3.org/2000/svg" viewBox="0 0 61 53.25"><defs><style>.cls-1{fill:#294596;}</style></defs><path class="cls-1" d="M9.09,28.7c-.46-.15-.9-.3-1.32-.46Z"/><path class="cls-1" d="M15.32,30.37s0,0,0,0c-1.88-.47-3.76-.91-5.44-1.4h0c0-.4,0-.79.05-1.17v0a27.36,27.36,0,0,1,1-7.21c.59-2.17,1.37-3.49,2.21-3.49a1.08,1.08,0,0,1,.89.51C15.63,19.52,16,25.58,15.32,30.37Z"/><path class="cls-1" d="M44.37,29.49c0,.41,0,.82,0,1.22l-.63.17.52-.15S44.28,30.25,44.37,29.49Z"/><path class="cls-1" d="M51,29h0v0S51,29,51,29Z"/><path class="cls-1" d="M53.69,28.08l-.13.06c0-.19,0-.75-.08-1.54C53.56,27.1,53.63,27.6,53.69,28.08Z"/><path class="cls-1" d="M34.84,0S38.42,9.92,38,13.65c-.81,7.94-7.55,12-7.55,12v0h0v0S24.2,20.94,23.4,13C23,9.28,26.09,0,26.09,0H0S1.43,21.09,4.39,25.91a5.89,5.89,0,0,0,2.69,2c.26-5.6,1.44-13.67,6-13.67a3.81,3.81,0,0,1,3,1.52C18.77,19,18.57,26.71,18,31.08c4.32,1.32,8,3.21,8.13,7.19H15.87l0,1.4c0,3.19-.47,8.87-2.07,10.49a.85.85,0,0,1-.66.33S12,50.24,11,45.41c2.86-4.11,5.91-9.11,6.66-12.69.09-.47.19-1,.27-1.64l-.06,0c-.85-.26-1.73-.49-2.61-.72a.37.37,0,0,1,0,.11c-.08.59-.18,1.17-.29,1.71-.53,2.52-2.45,6-4.59,9.26a101.83,101.83,0,0,1-.63-10.48c0-.67,0-1.34,0-2v0l-.68-.21h0l-1.32-.46L7.15,28l-.07,0C7,29.07,7,30.1,7,30.94a100.47,100.47,0,0,0,.78,11.83c.1.7.2,1.37.31,2-2.5,3.5-5.8,7.85-5.85,7.9l3.29,0c.16-.19,1.52-1.83,3.37-4.31,1,3.33,2.39,4.92,4.25,4.92a3.63,3.63,0,0,0,2.62-1.15c2.34-2.38,2.78-8.3,2.85-11.08H26c-.69,7.46-4.25,10.8-4.25,10.8H39.2S35.64,48.48,35,41h6.59c.06,3.77.52,7.55,2.56,9.64a5.13,5.13,0,0,0,3.82,1.56,5.64,5.64,0,0,0,4.19-1.65,8.35,8.35,0,0,0,2-5.44l-2.75.06a5.51,5.51,0,0,1-1.19,3.46,2.92,2.92,0,0,1-2.21.81,2.43,2.43,0,0,1-1.85-.72c-2-2-1.83-7.82-1.73-11.65,0-.86,0-1.67,0-2.4,0-.54,0-1.12,0-1.74s0-1.45,0-2.24l-.63.17-.7.2-1.27.37a49.31,49.31,0,0,1,1.8-11c.91-2.81,2.28-5.11,4.31-5.26,4.27-.32,5.35,7.85,5.62,11.41v0c.08.5.15,1,.21,1.48a6.53,6.53,0,0,0,3-2.12C59.83,21.26,61,0,61,0Zm0,38.27c.12-3.55,3-5.44,6.75-6.73,0,.49,0,1,0,1.45s0,1.17,0,1.7c0,.7,0,1.49,0,2.33l0,1.25Z"/><path class="cls-1" d="M51,29v0c-2.06.59-4.41,1.09-6.66,1.71,0-.4,0-.81,0-1.22h0a46.8,46.8,0,0,1,1.37-7.37C46.27,20.35,47,19,47.8,19,50.44,19,51,27.77,51,28.93Z"/><path class="cls-1" d="M54.07,35.19l-2.75,0a50,50,0,0,0-.3-6.08V29a23.56,23.56,0,0,0,2.54-.86c0-.19,0-.75-.08-1.54.08.5.15,1,.21,1.48A52.9,52.9,0,0,1,54.07,35.19Z"/><path class="cls-1" d="M44.37,29.49c0,.41,0,.82,0,1.22l-.63.17.52-.15S44.28,30.25,44.37,29.49Z"/><path class="cls-1" d="M7.77,28.24,7.15,28v0Z"/><path class="cls-1" d="M9.83,28.93v0h0l-.68-.24.68.21"/><path class="cls-1" d="M53.56,28.2,51,29.06h0A.28.28,0,0,0,51,29v0s0,0,0,0a23.56,23.56,0,0,0,2.54-.86Z"/></svg>